<svg width="45" height="45" viewBox="0 0 45 45" fill="none" xmlns="http://www.w3.org/2000/svg">
<path d="M44.2296 8.04886C43.82 4.2112 40.7891 1.17966 36.9511 0.770416C27.3264 -0.256805 17.6736 -0.256805 8.0492 0.770416C4.2112 1.18 1.18 4.2112 0.770416 8.04886C-0.256805 17.6732 -0.256805 27.3264 0.770416 36.9508C1.18 40.7888 4.2112 43.82 8.04886 44.2296C17.6732 45.2568 27.3264 45.2568 36.9511 44.2296C40.7891 43.82 43.82 40.7888 44.2296 36.9508C45.2568 27.3264 45.2568 17.6736 44.2296 8.04886Z" fill="url(#paint0_radial_130_521)"/>
<path d="M41.781 9.6765C41.4178 6.27108 38.7282 3.58114 35.3224 3.21756C26.7819 2.30639 18.216 2.30639 9.67552 3.21756C6.2701 3.58114 3.58017 6.27108 3.21659 9.6765C2.30541 18.217 2.30541 26.7829 3.21659 35.3231C3.58017 38.7288 6.2701 41.4187 9.67552 41.782C18.216 42.6935 26.7819 42.6935 35.3221 41.782C38.7278 41.4187 41.4178 38.7288 41.781 35.3231C42.6925 26.7829 42.6925 18.217 41.781 9.6765Z" fill="url(#paint1_linear_130_521)"/>
<path d="M0.675781 36.0181C0.70668 36.3291 0.738609 36.6402 0.771912 36.9512C1.1815 40.7889 4.21269 43.8201 8.0507 44.2297C17.6751 45.2569 27.3283 45.2569 36.9526 44.2297C40.7906 43.8201 43.8215 40.7889 44.2311 36.9512C44.2644 36.6402 44.2963 36.3291 44.3275 36.0181H0.675781Z" fill="url(#paint2_linear_130_521)"/>
<path d="M44.2295 36.9508C44.7815 31.7793 45.0363 26.5996 44.9951 21.4206L34.7091 11.1346C33.4241 9.66759 31.5471 8.75194 29.3416 8.67264C24.806 8.50921 20.256 8.51745 15.7196 8.67332C11.952 8.8031 9.31735 11.3354 8.64169 15.0574C8.52256 15.7145 8.45115 16.3802 8.35742 17.0422V27.9536C8.40926 28.3073 8.48548 28.6592 8.50917 29.0149C8.66023 31.2787 9.59064 33.2178 11.0803 34.5296L21.5475 44.9965C26.6843 45.0326 31.8215 44.7771 36.951 44.2295C40.789 43.82 43.8199 40.7888 44.2295 36.9508Z" fill="url(#paint3_linear_130_521)"/>
<path d="M44.2288 36.9512C43.8195 40.7885 40.7876 43.8204 36.9503 44.2297C31.8214 44.7769 26.6832 45.0327 21.5471 44.9967L11.0957 34.5452C12.3073 35.6057 13.8866 36.2515 15.7192 36.3205C20.2545 36.4908 24.8056 36.4864 29.3409 36.3229C33.4429 36.1746 36.4113 33.1386 36.5394 29.0366C36.676 24.6812 36.676 20.3145 36.5394 15.9591C36.481 14.0667 35.8167 12.4016 34.7153 11.1416L44.9947 21.421C45.0352 26.5994 44.7805 31.7798 44.2288 36.9512Z" fill="url(#paint4_linear_130_521)"/>
<path d="M27.8105 17.6274C26.4928 16.1927 24.6022 15.2925 22.5007 15.2925C18.5202 15.2925 15.293 18.5197 15.293 22.5002C15.293 24.6017 16.1932 26.4924 17.6279 27.81L34.3041 44.4862C35.1868 44.4093 36.0695 44.3239 36.9515 44.2298C40.7895 43.8202 43.8207 40.789 44.2303 36.951C44.3243 36.069 44.4098 35.1863 44.4867 34.3036L27.8105 17.6274Z" fill="url(#paint5_linear_130_521)"/>
<path d="M44.9131 27.3476L31.492 13.9267C31.1788 13.5158 30.6855 13.249 30.129 13.249C29.1821 13.249 28.4141 14.0167 28.4141 14.9639C28.4141 15.5204 28.6808 16.0138 29.0918 16.3269L44.6731 31.9086C44.7789 30.3887 44.8589 28.8681 44.9131 27.3476Z" fill="url(#paint6_linear_130_521)"/>
<path d="M8.35742 17.0422C8.45115 16.3802 8.52256 15.7145 8.64169 15.0574C9.31701 11.3354 11.952 8.8031 15.7196 8.67332C20.256 8.51745 24.806 8.50921 29.3417 8.67264C33.4423 8.82027 36.412 11.8566 36.5401 15.9586C36.6764 20.3144 36.6764 24.6807 36.5401 29.0365C36.412 33.1385 33.4433 36.1745 29.342 36.3225C24.8064 36.4862 20.2553 36.4904 15.72 36.3201C11.6186 36.1659 8.78349 33.1227 8.50917 29.0145C8.48548 28.6592 8.40926 28.3069 8.35742 27.9533C8.35742 24.3161 8.35742 20.679 8.35742 17.0422ZM22.5037 33.8914C24.5794 33.8914 26.6572 33.9536 28.7302 33.877C31.9804 33.7565 33.9796 31.8167 34.0555 28.5696C34.1495 24.5235 34.1495 20.472 34.0555 16.4256C33.9796 13.1791 31.9791 11.194 28.7302 11.125C24.6065 11.0378 20.4784 11.0385 16.3548 11.125C13.1306 11.1926 11.1256 13.1375 11.0381 16.3483C10.9268 20.4455 10.9268 24.5499 11.0381 28.6472C11.1256 31.8576 13.1306 33.7575 16.3551 33.877C18.402 33.9532 20.4541 33.8914 22.5037 33.8914Z" fill="url(#paint7_linear_130_521)"/>
<path d="M8.35742 17.0422C8.45115 16.3802 8.52256 15.7145 8.64169 15.0574C9.31701 11.3354 11.952 8.8031 15.7196 8.67332C20.256 8.51745 24.806 8.50921 29.3417 8.67264C33.4423 8.82027 36.412 11.8566 36.5401 15.9586C36.6764 20.3144 36.6764 24.6807 36.5401 29.0365C36.412 33.1385 33.4433 36.1745 29.342 36.3225C24.8064 36.4862 20.2553 36.4904 15.72 36.3201C11.6186 36.1659 8.78349 33.1227 8.50917 29.0145C8.48548 28.6592 8.40926 28.3069 8.35742 27.9533C8.35742 24.3161 8.35742 20.679 8.35742 17.0422ZM22.5037 33.8914C24.5794 33.8914 26.6572 33.9536 28.7302 33.877C31.9804 33.7565 33.9796 31.8167 34.0555 28.5696C34.1495 24.5235 34.1495 20.472 34.0555 16.4256C33.9796 13.1791 31.9791 11.194 28.7302 11.125C24.6065 11.0378 20.4784 11.0385 16.3548 11.125C13.1306 11.1926 11.1256 13.1375 11.0381 16.3483C10.9268 20.4455 10.9268 24.5499 11.0381 28.6472C11.1256 31.8576 13.1306 33.7575 16.3551 33.877C18.402 33.9532 20.4541 33.8914 22.5037 33.8914Z" fill="white"/>
<path d="M22.5007 15.2925C18.5202 15.2925 15.293 18.5194 15.293 22.4999C15.293 26.4807 18.5202 29.7076 22.5007 29.7076C26.4815 29.7076 29.7084 26.4807 29.7084 22.4999C29.7084 18.5194 26.4815 15.2925 22.5007 15.2925ZM22.5007 27.226C19.8904 27.226 17.7745 25.1101 17.7745 22.4999C17.7745 19.8896 19.8904 17.7737 22.5007 17.7737C25.111 17.7737 27.2269 19.8896 27.2269 22.4999C27.2269 25.1101 25.111 27.226 22.5007 27.226Z" fill="white"/>
<path d="M31.8435 14.9639C31.8435 15.9108 31.0758 16.6785 30.129 16.6785C29.1821 16.6785 28.4141 15.9108 28.4141 14.9639C28.4141 14.0167 29.1821 13.249 30.129 13.249C31.0758 13.249 31.8435 14.0167 31.8435 14.9639Z" fill="white"/>
<defs>
<radialGradient id="paint0_radial_130_521" cx="0" cy="0" r="1" gradientUnits="userSpaceOnUse" gradientTransform="translate(9.22475 39.3264) scale(49.6271)">
<stop stop-color="#FAE100"/>
<stop offset="0.0544" stop-color="#FADC04"/>
<stop offset="0.1167" stop-color="#FBCE0E"/>
<stop offset="0.1829" stop-color="#FCB720"/>
<stop offset="0.2514" stop-color="#FE9838"/>
<stop offset="0.3054" stop-color="#FF7950"/>
<stop offset="0.4922" stop-color="#FF1C74"/>
<stop offset="1" stop-color="#6C1CD1"/>
</radialGradient>
<linearGradient id="paint1_linear_130_521" x1="17.2583" y1="19.5521" x2="-58.977" y2="-23.3303" gradientUnits="userSpaceOnUse">
<stop stop-color="#A1B5D8" stop-opacity="0"/>
<stop offset="0.3094" stop-color="#90A2BD" stop-opacity="0.309804"/>
<stop offset="0.7554" stop-color="#7C8B9C" stop-opacity="0.756863"/>
<stop offset="1" stop-color="#748290"/>
</linearGradient>
<linearGradient id="paint2_linear_130_521" x1="22.5015" y1="39.7237" x2="22.5015" y2="46.738" gradientUnits="userSpaceOnUse">
<stop stop-color="#FAE100" stop-opacity="0"/>
<stop offset="0.3068" stop-color="#FCA800" stop-opacity="0.305882"/>
<stop offset="0.6275" stop-color="#FE7300" stop-opacity="0.627451"/>
<stop offset="0.8685" stop-color="#FF5200" stop-opacity="0.866667"/>
<stop offset="1" stop-color="#FF4500"/>
</linearGradient>
<linearGradient id="paint3_linear_130_521" x1="19.9399" y1="19.8762" x2="8.8031" y2="8.73947" gradientUnits="userSpaceOnUse">
<stop stop-color="#833AB4" stop-opacity="0"/>
<stop offset="1" stop-color="#833AB4"/>
</linearGradient>
<linearGradient id="paint4_linear_130_521" x1="30.84" y1="41.1582" x2="25.2814" y2="14.9536" gradientUnits="userSpaceOnUse">
<stop stop-color="#833AB4" stop-opacity="0"/>
<stop offset="1" stop-color="#833AB4"/>
</linearGradient>
<linearGradient id="paint5_linear_130_521" x1="32.9566" y1="32.9561" x2="10.6303" y2="10.6298" gradientUnits="userSpaceOnUse">
<stop stop-color="#833AB4" stop-opacity="0"/>
<stop offset="1" stop-color="#833AB4"/>
</linearGradient>
<linearGradient id="paint6_linear_130_521" x1="34.6122" y1="19.4472" x2="27.2294" y2="12.0643" gradientUnits="userSpaceOnUse">
<stop stop-color="#833AB4" stop-opacity="0"/>
<stop offset="1" stop-color="#833AB4"/>
</linearGradient>
<linearGradient id="paint7_linear_130_521" x1="31.4347" y1="13.6274" x2="13.2312" y2="31.8309" gradientUnits="userSpaceOnUse">
<stop stop-color="#833AB4"/>
<stop offset="0.0922" stop-color="#9C3495"/>
<stop offset="0.2927" stop-color="#DC2546"/>
<stop offset="0.392" stop-color="#FD1D1D"/>
<stop offset="0.5589" stop-color="#FC6831"/>
<stop offset="0.6887" stop-color="#FC9B40"/>
<stop offset="0.7521" stop-color="#FCAF45"/>
<stop offset="0.7806" stop-color="#FDB750"/>
<stop offset="0.8656" stop-color="#FECB6A"/>
<stop offset="0.9415" stop-color="#FFD87A"/>
<stop offset="1" stop-color="#FFDC80"/>
</linearGradient>
</defs>
</svg>
