<svg width="45" height="45" viewBox="0 0 45 45" fill="none" xmlns="http://www.w3.org/2000/svg">
<path d="M0 21.5625C0 11.3978 0 6.31551 3.15775 3.15775C6.31551 0 11.3978 0 21.5625 0H23.4375C33.6022 0 38.6845 0 41.8422 3.15775C45 6.31551 45 11.3978 45 21.5625V23.4375C45 33.6022 45 38.6845 41.8422 41.8422C38.6845 45 33.6022 45 23.4375 45H21.5625C11.3978 45 6.31551 45 3.15775 41.8422C0 38.6845 0 33.6022 0 23.4375L0 21.5625Z" fill="#2787F5"/>
<path fill-rule="evenodd" clip-rule="evenodd" d="M12.1885 14.0625H8.90653C7.96881 14.0625 7.78125 14.5039 7.78125 14.9904C7.78125 15.8596 8.89393 20.1701 12.9621 25.8712C15.6742 29.7645 19.4952 31.875 22.9723 31.875C25.0585 31.875 25.3166 31.4062 25.3166 30.5989V27.6562C25.3166 26.7187 25.5143 26.5316 26.1748 26.5316C26.6617 26.5316 27.4961 26.775 29.4433 28.6522C31.6687 30.8769 32.0355 31.875 33.2872 31.875H36.5692C37.5069 31.875 37.9758 31.4062 37.7053 30.4812C37.4093 29.5593 36.3469 28.2216 34.9371 26.636C34.1721 25.7321 33.0247 24.7588 32.6769 24.2721C32.1902 23.6464 32.3292 23.3682 32.6769 22.8121C32.6769 22.8121 36.6756 17.1805 37.0928 15.2687C37.3014 14.5733 37.0928 14.0625 36.1003 14.0625H32.8183C31.9838 14.0625 31.5991 14.5039 31.3904 14.9904C31.3904 14.9904 29.7215 19.0577 27.3571 21.6997C26.5921 22.4644 26.2444 22.7077 25.8271 22.7077C25.6185 22.7077 25.3165 22.4644 25.3165 21.7692V15.2687C25.3165 14.4343 25.0744 14.0625 24.3788 14.0625H19.2214C18.6999 14.0625 18.3863 14.4497 18.3863 14.8167C18.3863 15.6076 19.5684 15.79 19.6903 18.0148V22.8469C19.6903 23.9062 19.4989 24.0983 19.0817 24.0983C17.9691 24.0983 15.2626 20.0129 13.6574 15.3382C13.3429 14.4295 13.0273 14.0625 12.1885 14.0625Z" fill="white"/>
</svg>
