<svg width="45" height="45" viewBox="0 0 45 45" fill="none" xmlns="http://www.w3.org/2000/svg">
<circle cx="22.5" cy="22.5" r="22.5" fill="#FF0000"/>
<path d="M35.1372 16.258C34.8375 15.1167 33.9382 14.2157 32.7991 13.9003C30.7457 13.3447 22.5022 13.3447 22.5022 13.3447C22.5022 13.3447 14.2586 13.3447 12.1902 13.9003C11.0511 14.2007 10.1668 15.1017 9.85208 16.258C9.3125 18.3303 9.3125 22.6551 9.3125 22.6551C9.3125 22.6551 9.3125 26.9799 9.86707 29.0522C10.1668 30.1934 11.0661 31.0944 12.2052 31.4098C14.2586 31.9654 22.5022 31.9654 22.5022 31.9654C22.5022 31.9654 30.7457 31.9654 32.8141 31.4098C33.9532 31.1095 34.8375 30.2085 35.1522 29.0522C35.6918 26.9799 35.6918 22.6551 35.6918 22.6551C35.6918 22.6551 35.6918 18.3303 35.1372 16.258ZM19.8043 26.5894V18.7207L26.6989 22.6551L19.8043 26.5894Z" fill="white"/>
</svg>
