<svg width="45" height="45" viewBox="0 0 45 45" fill="none" xmlns="http://www.w3.org/2000/svg">
<path d="M44.2296 8.04886C43.82 4.2112 40.7891 1.17966 36.9511 0.770416C27.3264 -0.256805 17.6736 -0.256805 8.0492 0.770416C4.2112 1.18 1.18 4.2112 0.770416 8.04886C-0.256805 17.6732 -0.256805 27.3264 0.770416 36.9508C1.18 40.7888 4.2112 43.82 8.04886 44.2296C17.6732 45.2568 27.3264 45.2568 36.9511 44.2296C40.7891 43.82 43.82 40.7888 44.2296 36.9508C45.2568 27.3264 45.2568 17.6736 44.2296 8.04886Z" fill="url(#paint0_radial_130_450)"/>
<path d="M41.781 9.67659C41.4178 6.27117 38.7282 3.58123 35.3224 3.21766C26.7819 2.30648 18.216 2.30648 9.67552 3.21766C6.2701 3.58123 3.58017 6.27117 3.21659 9.67659C2.30541 18.2171 2.30541 26.783 3.21659 35.3231C3.58017 38.7289 6.2701 41.4188 9.67552 41.7821C18.216 42.6936 26.7819 42.6936 35.3221 41.7821C38.7278 41.4188 41.4178 38.7289 41.781 35.3231C42.6925 26.783 42.6925 18.2171 41.781 9.67659Z" fill="url(#paint1_linear_130_450)"/>
<path d="M0.675781 36.0179C0.70668 36.329 0.738609 36.64 0.771912 36.9511C1.1815 40.7888 4.21269 43.82 8.0507 44.2295C17.6751 45.2568 27.3283 45.2568 36.9526 44.2295C40.7906 43.82 43.8215 40.7888 44.2311 36.9511C44.2644 36.64 44.2963 36.329 44.3275 36.0179H0.675781Z" fill="url(#paint2_linear_130_450)"/>
<path d="M44.2295 36.9509C44.7815 31.7794 45.0363 26.5997 44.9951 21.4206L34.7091 11.1347C33.4241 9.66768 31.5471 8.75204 29.3416 8.67273C24.806 8.50931 20.256 8.51755 15.7196 8.67341C11.952 8.80319 9.31735 11.3355 8.64169 15.0575C8.52256 15.7146 8.45115 16.3803 8.35742 17.0423V27.9537C8.40926 28.3074 8.48548 28.6593 8.50917 29.0149C8.66023 31.2788 9.59064 33.2179 11.0803 34.5297L21.5475 44.9966C26.6843 45.0327 31.8215 44.7772 36.951 44.2296C40.789 43.8201 43.8199 40.7889 44.2295 36.9509Z" fill="url(#paint3_linear_130_450)"/>
<path d="M44.2288 36.9511C43.8195 40.7885 40.7876 43.8203 36.9503 44.2296C31.8214 44.7768 26.6832 45.0326 21.5471 44.9966L11.0957 34.5451C12.3073 35.6057 13.8866 36.2514 15.7192 36.3205C20.2545 36.4907 24.8056 36.4863 29.3409 36.3229C33.4429 36.1745 36.4113 33.1385 36.5394 29.0365C36.676 24.6811 36.676 20.3144 36.5394 15.959C36.481 14.0666 35.8167 12.4015 34.7153 11.1415L44.9947 21.4209C45.0352 26.5993 44.7805 31.7797 44.2288 36.9511Z" fill="url(#paint4_linear_130_450)"/>
<path d="M27.8105 17.6273C26.4928 16.1925 24.6022 15.2923 22.5007 15.2923C18.5202 15.2923 15.293 18.5196 15.293 22.5C15.293 24.6015 16.1932 26.4922 17.6279 27.8099L34.3041 44.4861C35.1868 44.4092 36.0695 44.3237 36.9515 44.2296C40.7895 43.82 43.8207 40.7889 44.2303 36.9508C44.3243 36.0688 44.4098 35.1862 44.4867 34.3035L27.8105 17.6273Z" fill="url(#paint5_linear_130_450)"/>
<path d="M44.9131 27.3474L31.492 13.9266C31.1788 13.5156 30.6855 13.2489 30.129 13.2489C29.1821 13.2489 28.4141 14.0165 28.4141 14.9638C28.4141 15.5203 28.6808 16.0136 29.0918 16.3268L44.6731 31.9085C44.7789 30.3886 44.8589 28.868 44.9131 27.3474Z" fill="url(#paint6_linear_130_450)"/>
<path d="M8.35742 17.0423C8.45115 16.3803 8.52256 15.7146 8.64169 15.0575C9.31701 11.3355 11.952 8.80319 15.7196 8.67341C20.256 8.51755 24.806 8.50931 29.3417 8.67273C33.4423 8.82036 36.412 11.8567 36.5401 15.9587C36.6764 20.3145 36.6764 24.6808 36.5401 29.0366C36.412 33.1386 33.4433 36.1746 29.342 36.3226C24.8064 36.4863 20.2553 36.4905 15.72 36.3202C11.6186 36.166 8.78349 33.1228 8.50917 29.0146C8.48548 28.6593 8.40926 28.307 8.35742 27.9534C8.35742 24.3162 8.35742 20.6791 8.35742 17.0423ZM22.5037 33.8915C24.5794 33.8915 26.6572 33.9536 28.7302 33.8771C31.9804 33.7566 33.9796 31.8168 34.0555 28.5697C34.1495 24.5236 34.1495 20.472 34.0555 16.4256C33.9796 13.1792 31.9791 11.1941 28.7302 11.1251C24.6065 11.0379 20.4784 11.0386 16.3548 11.1251C13.1306 11.1927 11.1256 13.1376 11.0381 16.3484C10.9268 20.4456 10.9268 24.55 11.0381 28.6472C11.1256 31.8577 13.1306 33.7576 16.3551 33.8771C18.402 33.9533 20.4541 33.8915 22.5037 33.8915Z" fill="url(#paint7_linear_130_450)"/>
<path d="M8.35742 17.0423C8.45115 16.3803 8.52256 15.7146 8.64169 15.0575C9.31701 11.3355 11.952 8.80319 15.7196 8.67341C20.256 8.51755 24.806 8.50931 29.3417 8.67273C33.4423 8.82036 36.412 11.8567 36.5401 15.9587C36.6764 20.3145 36.6764 24.6808 36.5401 29.0366C36.412 33.1386 33.4433 36.1746 29.342 36.3226C24.8064 36.4863 20.2553 36.4905 15.72 36.3202C11.6186 36.166 8.78349 33.1228 8.50917 29.0146C8.48548 28.6593 8.40926 28.307 8.35742 27.9534C8.35742 24.3162 8.35742 20.6791 8.35742 17.0423ZM22.5037 33.8915C24.5794 33.8915 26.6572 33.9536 28.7302 33.8771C31.9804 33.7566 33.9796 31.8168 34.0555 28.5697C34.1495 24.5236 34.1495 20.472 34.0555 16.4256C33.9796 13.1792 31.9791 11.1941 28.7302 11.1251C24.6065 11.0379 20.4784 11.0386 16.3548 11.1251C13.1306 11.1927 11.1256 13.1376 11.0381 16.3484C10.9268 20.4456 10.9268 24.55 11.0381 28.6472C11.1256 31.8577 13.1306 33.7576 16.3551 33.8771C18.402 33.9533 20.4541 33.8915 22.5037 33.8915Z" fill="white"/>
<path d="M22.5007 15.2927C18.5202 15.2927 15.293 18.5196 15.293 22.5C15.293 26.4809 18.5202 29.7078 22.5007 29.7078C26.4815 29.7078 29.7084 26.4809 29.7084 22.5C29.7084 18.5196 26.4815 15.2927 22.5007 15.2927ZM22.5007 27.2262C19.8904 27.2262 17.7745 25.1103 17.7745 22.5C17.7745 19.8898 19.8904 17.7739 22.5007 17.7739C25.111 17.7739 27.2269 19.8898 27.2269 22.5C27.2269 25.1103 25.111 27.2262 22.5007 27.2262Z" fill="white"/>
<path d="M31.8435 14.9638C31.8435 15.9107 31.0758 16.6784 30.129 16.6784C29.1821 16.6784 28.4141 15.9107 28.4141 14.9638C28.4141 14.0166 29.1821 13.2489 30.129 13.2489C31.0758 13.2489 31.8435 14.0166 31.8435 14.9638Z" fill="white"/>
<defs>
<radialGradient id="paint0_radial_130_450" cx="0" cy="0" r="1" gradientUnits="userSpaceOnUse" gradientTransform="translate(9.22475 39.3264) scale(49.6271)">
<stop stop-color="#FAE100"/>
<stop offset="0.0544" stop-color="#FADC04"/>
<stop offset="0.1167" stop-color="#FBCE0E"/>
<stop offset="0.1829" stop-color="#FCB720"/>
<stop offset="0.2514" stop-color="#FE9838"/>
<stop offset="0.3054" stop-color="#FF7950"/>
<stop offset="0.4922" stop-color="#FF1C74"/>
<stop offset="1" stop-color="#6C1CD1"/>
</radialGradient>
<linearGradient id="paint1_linear_130_450" x1="17.2583" y1="19.5522" x2="-58.977" y2="-23.3302" gradientUnits="userSpaceOnUse">
<stop stop-color="#A1B5D8" stop-opacity="0"/>
<stop offset="0.3094" stop-color="#90A2BD" stop-opacity="0.309804"/>
<stop offset="0.7554" stop-color="#7C8B9C" stop-opacity="0.756863"/>
<stop offset="1" stop-color="#748290"/>
</linearGradient>
<linearGradient id="paint2_linear_130_450" x1="22.5015" y1="39.7235" x2="22.5015" y2="46.7379" gradientUnits="userSpaceOnUse">
<stop stop-color="#FAE100" stop-opacity="0"/>
<stop offset="0.3068" stop-color="#FCA800" stop-opacity="0.305882"/>
<stop offset="0.6275" stop-color="#FE7300" stop-opacity="0.627451"/>
<stop offset="0.8685" stop-color="#FF5200" stop-opacity="0.866667"/>
<stop offset="1" stop-color="#FF4500"/>
</linearGradient>
<linearGradient id="paint3_linear_130_450" x1="19.9399" y1="19.8763" x2="8.8031" y2="8.73956" gradientUnits="userSpaceOnUse">
<stop stop-color="#833AB4" stop-opacity="0"/>
<stop offset="1" stop-color="#833AB4"/>
</linearGradient>
<linearGradient id="paint4_linear_130_450" x1="30.84" y1="41.1581" x2="25.2814" y2="14.9535" gradientUnits="userSpaceOnUse">
<stop stop-color="#833AB4" stop-opacity="0"/>
<stop offset="1" stop-color="#833AB4"/>
</linearGradient>
<linearGradient id="paint5_linear_130_450" x1="32.9566" y1="32.956" x2="10.6303" y2="10.6296" gradientUnits="userSpaceOnUse">
<stop stop-color="#833AB4" stop-opacity="0"/>
<stop offset="1" stop-color="#833AB4"/>
</linearGradient>
<linearGradient id="paint6_linear_130_450" x1="34.6122" y1="19.447" x2="27.2294" y2="12.0641" gradientUnits="userSpaceOnUse">
<stop stop-color="#833AB4" stop-opacity="0"/>
<stop offset="1" stop-color="#833AB4"/>
</linearGradient>
<linearGradient id="paint7_linear_130_450" x1="31.4347" y1="13.6275" x2="13.2312" y2="31.831" gradientUnits="userSpaceOnUse">
<stop stop-color="#833AB4"/>
<stop offset="0.0922" stop-color="#9C3495"/>
<stop offset="0.2927" stop-color="#DC2546"/>
<stop offset="0.392" stop-color="#FD1D1D"/>
<stop offset="0.5589" stop-color="#FC6831"/>
<stop offset="0.6887" stop-color="#FC9B40"/>
<stop offset="0.7521" stop-color="#FCAF45"/>
<stop offset="0.7806" stop-color="#FDB750"/>
<stop offset="0.8656" stop-color="#FECB6A"/>
<stop offset="0.9415" stop-color="#FFD87A"/>
<stop offset="1" stop-color="#FFDC80"/>
</linearGradient>
</defs>
</svg>
