<svg width="33" height="34" viewBox="0 0 33 34" fill="none" xmlns="http://www.w3.org/2000/svg">
<path d="M30.5705 24.4608V28.977C30.5722 29.3962 30.4902 29.8112 30.3299 30.1954C30.1697 30.5795 29.9346 30.9243 29.6398 31.2078C29.3449 31.4912 28.9969 31.707 28.6179 31.8413C28.2389 31.9756 27.8373 32.0255 27.4388 31.9878C23.0183 31.4844 18.772 29.9015 15.0413 27.3662C11.5703 25.0549 8.62752 21.9711 6.42191 18.3338C3.99409 14.4065 2.4832 9.93512 2.01166 5.28193C1.97576 4.86563 2.02297 4.44607 2.15029 4.04994C2.27761 3.65381 2.48224 3.28981 2.75115 2.9811C3.02007 2.67239 3.34738 2.42574 3.71225 2.25685C4.07712 2.08796 4.47155 2.00054 4.87042 2.00015H9.18011C9.87729 1.99296 10.5532 2.25167 11.0818 2.72806C11.6104 3.20445 11.9557 3.86601 12.0532 4.58944C12.2351 6.03473 12.5725 7.45381 13.0588 8.81962C13.2521 9.35844 13.2939 9.94403 13.1794 10.507C13.0648 11.07 12.7986 11.5867 12.4124 11.996L10.5879 13.9079C12.633 17.6767 15.6108 20.7973 19.2073 22.9403L21.0318 21.0284C21.4223 20.6237 21.9155 20.3448 22.4527 20.2247C22.9899 20.1046 23.5487 20.1485 24.0629 20.351C25.3663 20.8607 26.7205 21.2142 28.0997 21.4048C28.7975 21.508 29.4348 21.8763 29.8904 22.4398C30.346 23.0032 30.588 23.7225 30.5705 24.4608Z" stroke="url(#paint0_linear_52_821)" stroke-width="3.33333" stroke-linecap="round" stroke-linejoin="round"/>
<defs>
<linearGradient id="paint0_linear_52_821" x1="28.368" y1="3.88835" x2="2.02507" y2="28.1829" gradientUnits="userSpaceOnUse">
<stop stop-color="#0C2F8A"/>
<stop offset="1" stop-color="#027DC6"/>
</linearGradient>
</defs>
</svg>
