<svg width="45" height="45" viewBox="0 0 45 45" fill="none" xmlns="http://www.w3.org/2000/svg">
<circle cx="22.5" cy="22.5" r="22.5" fill="#FF0000"/>
<path d="M35.1372 16.2581C34.8375 15.1168 33.9382 14.2158 32.7991 13.9005C30.7457 13.3448 22.5022 13.3448 22.5022 13.3448C22.5022 13.3448 14.2586 13.3448 12.1902 13.9005C11.0511 14.2008 10.1668 15.1018 9.85208 16.2581C9.3125 18.3304 9.3125 22.6552 9.3125 22.6552C9.3125 22.6552 9.3125 26.98 9.86707 29.0523C10.1668 30.1936 11.0661 31.0946 12.2052 31.4099C14.2586 31.9655 22.5022 31.9655 22.5022 31.9655C22.5022 31.9655 30.7457 31.9655 32.8141 31.4099C33.9532 31.1096 34.8375 30.2086 35.1522 29.0523C35.6918 26.98 35.6918 22.6552 35.6918 22.6552C35.6918 22.6552 35.6918 18.3304 35.1372 16.2581ZM19.8043 26.5896V18.7208L26.6989 22.6552L19.8043 26.5896Z" fill="white"/>
</svg>
