<svg width="117" height="31" viewBox="0 0 117 31" fill="none" xmlns="http://www.w3.org/2000/svg">
<path d="M13.0649 28.6591C19.7292 28.6591 25.1317 23.2566 25.1317 16.5922C25.1317 9.9279 19.7292 4.52539 13.0649 4.52539C6.40056 4.52539 0.998047 9.9279 0.998047 16.5922C0.998047 23.2566 6.40056 28.6591 13.0649 28.6591Z" fill="#FF4644"/>
<path d="M42.448 24.4955L41.3318 21.6598H34.6347L33.5185 24.4955H29.3555L35.7811 9.32143C35.9017 9.01976 36.2336 8.80859 36.5352 8.80859H39.4313C39.7933 8.80859 40.0648 8.9896 40.1855 9.32143L46.6412 24.4955H42.448ZM38.0134 13.1527L35.9922 18.3112H40.0346L38.0134 13.1527Z" fill="white"/>
<path d="M69.0546 17.1053V24.466H65.2837V17.9198C65.2837 16.5924 64.4089 15.7478 63.2927 15.7478C61.905 15.7478 60.9698 16.7433 60.9698 18.7041V24.466H57.1688V17.9198C57.1688 16.5924 56.2939 15.7478 55.1476 15.7478C53.7901 15.7478 52.885 16.7433 52.885 18.7041V24.466H49.084V13.455C49.084 13.0629 49.446 12.7009 49.8382 12.7009H52.885V13.7869C53.6694 12.8819 54.8459 12.3389 56.3844 12.3389C58.0135 12.3389 59.4615 13.0629 60.276 14.3299C61.2112 13.1232 62.6592 12.3389 64.4692 12.3389C67.0334 12.369 69.0546 14.2696 69.0546 17.1053Z" fill="white"/>
<path d="M84.711 24.4953H80.9401V23.53C80.0351 24.3445 78.7983 24.797 77.2598 24.797C74.0922 24.797 71.4375 22.2931 71.4375 18.5826C71.4375 14.9022 74.0922 12.3682 77.2598 12.3682C78.7983 12.3682 80.0351 12.8508 80.9401 13.6352V12.7H84.7412V24.4953H84.711ZM80.9401 18.6128C80.9401 16.8027 79.5826 15.5659 78.0441 15.5659C76.4151 15.5659 75.1782 16.8027 75.1782 18.6128C75.1782 20.4228 76.3849 21.6596 78.0441 21.6596C79.5826 21.6295 80.9401 20.4228 80.9401 18.6128Z" fill="white"/>
<path d="M100.579 24.4953H96.778V23.5299C95.873 24.3444 94.6362 24.7969 93.0976 24.7969C89.9301 24.7969 87.2754 22.2931 87.2754 18.5825C87.2754 14.9021 89.9301 12.3681 93.0976 12.3681C94.6362 12.3681 95.873 12.8507 96.778 13.6351V7.63184H100.579V24.4953ZM96.778 18.6127C96.778 16.8026 95.4205 15.5658 93.882 15.5658C92.253 15.5658 91.0161 16.8026 91.0161 18.6127C91.0161 20.4227 92.2228 21.6595 93.882 21.6595C95.3903 21.6294 96.778 20.4227 96.778 18.6127Z" fill="white"/>
<path d="M116.237 18.613C116.237 22.3235 113.251 24.8274 109.721 24.8274C106.131 24.8274 103.145 22.3537 103.145 18.613C103.145 14.9326 106.101 12.4287 109.721 12.4287C113.251 12.4287 116.237 14.9024 116.237 18.613ZM112.587 18.613C112.587 16.8029 111.199 15.5661 109.721 15.5661C108.182 15.5661 106.795 16.7728 106.795 18.613C106.795 20.4532 108.182 21.6599 109.721 21.6599C111.169 21.6297 112.587 20.4532 112.587 18.613Z" fill="white"/>
<path d="M6.06511 29.3523C6.03494 29.3222 6.00478 29.3222 5.97461 29.292C6.03494 29.3222 6.06511 29.3222 6.06511 29.3523Z" fill="#5637E3"/>
<path d="M3.32118 25.7019C3.32118 25.6718 3.29102 25.6718 3.29102 25.6416C3.29102 25.6718 3.32118 25.6718 3.32118 25.7019Z" fill="#5637E3"/>
<path d="M35.7501 0C35.2372 0.271504 34.9054 0.754178 34.3926 1.02568C34.3926 0.995515 34.3926 0.965348 34.3926 0.935181C34.2417 1.02568 34.2719 1.08602 34.2116 1.17652C34.1814 1.23685 34.0607 1.29719 34.0004 1.29719C33.9099 1.29719 33.9702 1.29719 33.9401 1.23685C33.9401 1.26702 33.035 1.90053 32.9144 1.99103C32.7334 2.14187 32.5825 2.26253 32.4015 2.41337C32.2507 2.53404 32.0999 2.77538 31.949 2.86588C31.8585 2.92621 31.7379 2.92621 31.6172 3.01671C31.4664 3.10721 31.3457 3.22788 31.1948 3.31838C31.0742 3.40888 30.9233 3.43905 30.8328 3.49939C30.6518 3.65022 30.6217 3.86139 30.5312 4.01223C30.3803 4.19323 30.1088 4.34407 29.9278 4.46473C29.7167 4.61557 29.5357 4.76641 29.3547 4.94741C28.9625 5.27925 28.5401 5.61108 28.148 5.94292C27.3938 6.6066 26.6396 7.30044 25.9156 7.99429C25.4933 8.38646 25.0709 8.8088 24.6184 9.20097C24.4072 9.38197 24.2262 9.56298 24.0151 9.77415C23.8944 9.89482 23.8039 9.98532 23.7134 10.106C23.6531 10.2267 23.5626 10.3775 23.5022 10.4982C23.4419 8.92947 22.2654 7.36078 20.6062 7.30044C20.6364 7.24011 20.6364 7.20994 20.6665 7.14961C19.1883 6.99877 17.7705 7.20994 16.3828 7.81328C15.1158 8.35629 13.9694 9.1708 13.0041 10.1362C12.8231 9.50264 12.5817 8.8088 12.2197 8.23562C12.1292 8.11495 12.0387 7.96412 11.9482 7.84345C11.9181 7.81328 11.7672 7.54178 11.7974 7.72278C11.7069 7.24011 11.3147 6.66693 10.9829 6.3351C11.013 6.3351 11.0432 6.36526 11.0734 6.39543C10.8924 6.06359 10.5907 5.94292 10.3192 5.70159C10.1985 5.61108 10.108 5.43008 9.98736 5.36975C9.8667 5.30941 9.71586 5.24908 9.59519 5.18875C9.41419 5.06808 9.23319 5.00774 9.02202 4.94741C8.93152 4.91724 8.84101 4.88707 8.75051 4.88707C8.69018 4.88707 8.53934 4.91724 8.47901 4.88707C8.41867 4.85691 8.38851 4.79657 8.35834 4.76641C8.26784 4.73624 8.14717 4.73624 8.05667 4.73624C7.8455 4.70607 7.63433 4.73624 7.42316 4.73624C6.63881 4.79657 5.8243 5.06808 5.16063 5.52058C4.82879 5.76192 4.55728 6.09376 4.25561 6.39543C3.92377 6.72727 3.59193 7.08927 3.41093 7.54178C3.32043 7.75295 3.29026 7.90379 3.19976 8.08479C3.07909 8.26579 2.98859 8.44679 2.89809 8.6278C2.68692 9.0803 2.50592 9.56298 2.44558 10.0457C2.44558 10.0155 2.44558 9.98532 2.44558 9.95515C2.29475 10.5283 2.17408 11.1317 2.11375 11.7048C2.08358 11.9462 2.08358 12.1875 2.11375 12.3987C2.11375 12.4289 2.14391 12.5194 2.14391 12.5495C2.11375 12.64 2.11375 12.6099 2.05341 12.7004C1.96291 12.821 1.90258 12.8814 1.84224 13.0322C1.75174 13.2434 1.69141 13.4847 1.69141 13.6959C1.69141 13.9674 1.72157 14.2087 1.72157 14.4802C1.72157 15.0534 1.69141 15.6266 1.78191 16.1997C1.81207 16.3807 1.75174 16.5014 1.75174 16.7126C1.75174 16.8634 1.75174 17.0143 1.72157 17.1651C1.72157 17.2254 1.69141 17.1651 1.69141 17.2556C1.69141 17.3159 1.72157 17.4064 1.72157 17.4668C1.75174 17.6176 1.78191 17.7684 1.81207 17.9193C1.87241 18.2511 1.93274 18.5829 1.99308 18.9148C2.23441 20.2421 2.47575 21.5695 2.74726 22.8968C2.89809 23.6209 3.04893 24.3449 3.22993 25.099C3.2601 25.28 3.29026 25.4611 3.3506 25.6421C3.41093 25.7929 3.50143 25.8834 3.65227 25.9739C3.92377 26.1549 4.40645 26.5169 4.37628 26.4566C4.67795 26.8789 4.91929 27.9046 4.85895 27.8443C5.22096 28.1158 5.34163 28.6286 5.7338 28.9303C5.8243 28.9906 5.94497 29.0208 6.0053 29.0811C6.03547 29.1113 5.97514 29.1414 6.03547 29.1716C6.12597 29.2319 6.27681 29.4733 6.15614 29.4129C7.69466 30.5593 9.65553 30.499 11.2242 29.4129C12.7024 28.3873 13.6678 26.7884 14.6633 25.3404C15.3269 24.375 16.0208 23.4399 16.7448 22.5047C16.7448 22.565 16.7448 22.6253 16.7146 22.6857C16.8353 22.4142 16.9258 22.1427 17.0465 21.841C17.0766 21.8712 17.0766 21.9315 17.0766 21.9918C17.8911 21.2377 18.223 20.1516 18.8867 19.2768C18.947 19.3371 18.947 19.4578 19.0375 19.4578C19.128 19.4578 19.1582 19.2466 19.1883 19.1561C19.2788 18.9751 19.3995 18.8545 19.5503 18.7338C19.852 18.4924 20.0028 18.2813 19.7917 17.9193C19.8822 17.9193 19.9727 18.0098 20.0028 18.1003C20.7872 16.6523 21.6017 15.2344 22.5067 13.8769C22.7179 13.5752 22.8989 13.2735 23.1101 12.9719C23.2006 12.821 23.3212 12.6702 23.4117 12.4892C23.5022 12.3082 23.5022 12.097 23.5324 11.8858C23.5626 11.6445 23.5626 11.4937 23.7134 11.3127C23.8341 11.1618 23.9547 11.0412 24.0754 10.8903C24.3469 10.5887 24.6184 10.287 24.9201 9.98532C24.9201 10.0457 25.1313 9.83448 25.1313 9.86465C25.5838 9.77415 25.8553 9.32164 26.0966 8.9898C26.2173 8.83897 26.3078 8.68813 26.4586 8.59763C26.5189 8.56746 26.6396 8.5373 26.6698 8.50713C26.7603 8.38646 26.6698 8.26579 26.5491 8.23562C27.3636 7.42111 28.1781 6.63677 29.0228 5.85242C29.4452 5.46025 29.8675 5.06808 30.2597 4.6759C30.4708 4.4949 30.682 4.28373 30.863 4.10273C30.9837 3.98206 31.2854 3.55972 31.4664 3.77089C32.0999 3.04688 32.8239 2.41337 33.5781 1.84019C33.9702 1.53852 34.3624 1.26702 34.7244 0.995515C34.8451 0.905014 35.8406 0.150836 35.8406 0.150836C35.7501 0 35.6898 0.0603342 35.6898 0.0603342C35.6898 0.0301671 35.7199 0.0301671 35.7501 0C35.1769 0.271504 35.5691 0.120668 35.7501 0ZM19.8218 8.05462C20.7269 8.17529 21.5715 8.5373 22.2955 9.11047C22.4766 9.26131 22.6274 9.38197 22.7481 9.62331C22.8386 9.83448 22.8989 10.0457 22.9291 10.2568C22.9592 10.468 22.9592 10.6792 22.9291 10.8903C22.9291 10.9808 22.9291 11.1015 22.8687 11.192C22.8084 11.3127 22.6576 11.4032 22.5671 11.4937C22.1749 11.8255 21.7224 12.1272 21.3302 12.4289C21.119 12.5797 20.938 12.7607 20.757 12.9115C20.6665 13.002 20.576 13.0925 20.4855 13.2132C20.4252 13.2735 20.3649 13.4244 20.3045 13.3037C20.1537 13.6355 19.9123 13.9372 19.7012 14.2087C19.5805 14.3294 19.49 14.4501 19.3693 14.5707C19.2487 14.6612 19.0677 14.7819 19.0073 14.9026C18.9168 15.0534 18.947 15.2646 18.8867 15.4456C18.8263 15.5662 18.7057 15.6266 18.585 15.6869C18.3738 15.8377 18.1928 15.9886 18.0118 16.1394C16.594 17.2556 15.4174 18.5829 14.0599 19.7896C12.8532 20.8455 11.194 21.8108 9.62536 20.936C9.35386 20.7851 9.08235 20.5438 8.93152 20.2421C8.78068 19.9706 8.81085 19.6388 8.84101 19.3371C8.93152 18.5226 9.38402 17.7986 9.74603 17.1048C10.6209 15.4757 12.8231 12.4289 12.7627 12.5495C12.9136 12.3384 13.0946 12.1573 13.3057 11.9763C13.3057 12.097 13.3661 12.1875 13.3661 12.3082C13.3661 12.3384 13.3359 12.3384 13.3359 12.3384C13.3057 12.5194 13.3962 12.64 13.3661 12.7909C13.3661 12.9115 13.2756 13.6959 13.2756 13.726C13.2454 13.7562 13.2454 13.8165 13.2152 13.8467C13.1851 13.8467 13.0644 14.5104 13.2152 14.5104C13.3057 14.5104 13.2756 14.1484 13.3057 14.0579C13.3661 13.8165 13.3962 13.545 13.4566 13.2735C13.5169 12.9719 13.4566 12.6702 13.4264 12.3685C13.4264 12.278 13.4264 12.1875 13.4264 12.097C13.4264 12.0367 13.3661 11.8858 13.3962 11.8255C13.4264 11.7652 13.5773 11.6445 13.6376 11.6143C14.1806 11.1317 18.1023 7.81328 19.8218 8.05462ZM21.3302 14.1785C20.3649 15.8076 19.3392 17.4064 18.3437 19.0355C18.3135 19.0053 18.2833 19.0053 18.2532 18.9751C17.4688 20.393 16.413 21.6298 15.3571 22.8365C14.8443 23.4399 14.3314 24.0432 13.8488 24.6465C13.6074 24.9784 13.3359 25.3102 13.0946 25.6421C12.8532 26.0041 12.5516 26.3359 12.2499 26.6677C11.2242 27.8744 9.9572 29.3224 8.2075 29.2319C7.39299 29.2018 6.63881 28.8096 6.06564 28.2364C5.52263 27.6934 5.25113 26.9392 4.88912 26.3057C4.46678 25.5515 3.98411 24.7974 3.6221 24.013C3.2601 23.2287 3.07909 22.4745 3.01876 21.5997C2.89809 19.8198 2.71709 18.0399 2.59642 16.2902C2.47575 14.5707 2.44558 12.7607 2.68692 11.0412C2.80759 10.1965 3.13943 9.29147 3.47127 8.50713C3.77294 7.75295 4.19528 7.05911 4.73829 6.48593C5.9148 5.27925 7.755 4.55523 9.35386 5.39991C10.108 5.82225 10.7114 6.27476 11.194 7.02894C11.7371 7.81328 12.1292 8.65796 12.4912 9.56298C12.4912 9.53281 12.4912 9.50264 12.4912 9.47248C12.5214 9.62331 12.5817 9.74398 12.6119 9.89482C12.6421 9.98532 12.7929 10.2267 12.7627 10.3172C12.7326 10.4077 12.5516 10.5585 12.4912 10.6188C12.4007 10.7093 12.3102 10.83 12.2197 10.9205C12.0387 11.1317 11.8577 11.3428 11.6466 11.554C11.4656 11.735 11.4957 11.7048 11.3147 11.554C10.651 13.3942 7.90583 13.907 7.87567 16.0791C7.81533 15.9886 7.72483 15.8981 7.6645 15.8076C7.936 16.2601 7.45333 17.1048 7.45333 17.2254C7.42316 17.3763 7.57399 17.6176 7.57399 17.7986C7.57399 18.1304 7.45333 18.4321 7.33266 18.7639C7.18182 19.1561 7.03099 19.5181 7.09132 19.9405C7.15166 20.3025 7.39299 20.6645 7.72483 20.8153C7.72483 20.8153 7.63433 20.8153 7.57399 20.8153C7.87567 21.0265 8.35834 21.1773 8.56951 21.5393C8.50918 21.5393 8.44884 21.6298 8.35834 21.6298C8.69018 22.2633 9.41419 22.565 10.0779 22.5348C10.9225 22.5047 11.6466 22.1125 12.4309 21.8108C12.4309 21.9315 12.4007 22.0522 12.4007 22.203C12.6421 21.8108 13.1549 21.5997 13.5471 21.3583C13.9694 21.117 14.3616 20.8455 14.6633 20.4231C14.6934 20.4835 14.7236 20.5136 14.7538 20.574C14.8141 20.4231 14.8443 20.2723 14.9046 20.0913C14.9649 20.1516 15.0253 20.212 15.0856 20.2723C15.2063 20.3628 15.1459 20.393 15.2968 20.3025C15.5984 20.1215 15.87 19.9103 16.1113 19.6388C16.594 19.126 16.9258 18.5528 17.3783 18.0399C17.4386 18.1304 17.499 18.2209 17.5593 18.3114C17.861 17.1953 19.0073 16.7428 19.5805 15.8076C19.5805 15.8377 19.6107 15.8679 19.6107 15.8981C20.3649 15.1741 21.0587 14.3595 21.7525 13.5752C21.5715 13.7562 21.4509 13.9674 21.3302 14.1785C20.3347 15.8377 21.4509 13.9674 21.3302 14.1785Z" fill="#5637E3"/>
</svg>
