<svg width="30" height="30" viewBox="0 0 30 30" fill="none" xmlns="http://www.w3.org/2000/svg">
<circle cx="15" cy="15" r="15" fill="#FF0000"/>
<path d="M23.4235 10.8387C23.2237 10.0779 22.6242 9.47719 21.8647 9.26696C20.4958 8.89655 15.0001 8.89655 15.0001 8.89655C15.0001 8.89655 9.50445 8.89655 8.12553 9.26696C7.36612 9.46718 6.77658 10.0678 6.56675 10.8387C6.20703 12.2202 6.20703 15.1034 6.20703 15.1034C6.20703 15.1034 6.20703 17.9866 6.57674 19.3682C6.77658 20.129 7.37611 20.7297 8.13552 20.9399C9.50444 21.3103 15.0001 21.3103 15.0001 21.3103C15.0001 21.3103 20.4958 21.3103 21.8747 20.9399C22.6341 20.7397 23.2237 20.139 23.4335 19.3682C23.7932 17.9866 23.7932 15.1034 23.7932 15.1034C23.7932 15.1034 23.7932 12.2202 23.4235 10.8387ZM13.2015 17.7264V12.4805L17.7979 15.1034L13.2015 17.7264Z" fill="white"/>
</svg>
