<svg width="52" height="52" viewBox="0 0 52 52" fill="none" xmlns="http://www.w3.org/2000/svg">
<path d="M51.1329 30.3335H48.4748L46.7997 6.00803C46.7683 5.55258 46.3896 5.19965 45.9329 5.20029H40.7329C40.2762 5.19965 39.8976 5.55258 39.8661 6.00803L38.191 30.3335H36.4V25.1335C36.4 24.6552 36.0118 24.2667 35.5335 24.2667C35.3361 24.2664 35.1451 24.3337 34.9915 24.4569L27.7332 30.2634V25.1335C27.7332 24.6552 27.3454 24.2667 26.8668 24.2667C26.6697 24.2664 26.4786 24.3337 26.325 24.4569L19.0668 30.2634V25.1335C19.0668 24.6552 18.6789 24.2667 18.2003 24.2667C18.0032 24.2664 17.8118 24.3337 17.6585 24.4569L10.4003 30.2634V25.1335C10.4 24.6552 10.0118 24.2671 9.53354 24.2671C9.3758 24.2671 9.22187 24.3099 9.08699 24.3908L0.420215 29.5908C0.159644 29.7476 0 30.0292 0 30.3335V51.1335C0 51.6121 0.388159 52 0.866772 52H51.1329C51.6115 52 51.9997 51.6121 51.9997 51.1335V31.2003C51.9997 30.7214 51.6115 30.3335 51.1329 30.3335ZM41.5422 6.93352H45.1236L46.7378 30.3335H39.928L41.5422 6.93352ZM29.4661 50.2668V39.8667H34.6661V50.2668H29.4661ZM50.2665 50.2668H36.4V39C36.4 38.5217 36.0115 38.1335 35.5329 38.1335H28.5997C28.1211 38.1335 27.7329 38.5217 27.7329 39V50.2668H1.73323V30.8242L8.66645 26.6643V32.0667C8.66645 32.5457 9.0543 32.9335 9.53291 32.9342C9.72969 32.9342 9.92107 32.8669 10.075 32.7437L17.3332 26.9372V32.0667C17.3332 32.5457 17.7208 32.9335 18.1997 32.9342C18.3965 32.9342 18.5875 32.8669 18.7415 32.744L25.9997 26.9375V32.0671C25.9997 32.5457 26.3872 32.9342 26.8661 32.9342C27.0629 32.9342 27.254 32.8669 27.4079 32.744L34.6661 26.9375V31.2003C34.6661 31.6792 35.0543 32.0671 35.5329 32.0671H50.2658L50.2665 50.2668Z" fill="#0754A6"/>
<path d="M29.4616 1.73386C29.7767 1.90271 30.0614 2.12297 30.3042 2.38545C30.7901 2.978 31.482 3.36394 32.2409 3.46709C33.0404 3.36521 33.7704 2.96245 34.2829 2.34038C34.5023 2.11028 34.7476 1.90683 35.0145 1.73386C35.1929 1.7418 35.6601 2.17915 35.9114 2.41401C36.3789 2.9926 37.0505 3.36933 37.7875 3.46709C38.6387 3.35918 39.4166 2.9323 39.9647 2.27278C40.1771 2.07346 40.4986 1.77099 40.5608 1.73386C41.0261 1.73386 41.1327 1.88811 41.419 2.30071C41.7951 3.01133 42.5301 3.45915 43.3344 3.46709C43.8127 3.46709 44.2008 3.07893 44.2008 2.60063C44.2008 2.1217 43.8127 1.73386 43.3344 1.73386C43.1608 1.73386 43.1271 1.7218 42.8456 1.31523C42.3854 0.488451 41.5066 -0.0171403 40.5608 0.000315805C39.8597 0.0977523 39.2217 0.458299 38.7774 1.00928C38.4895 1.28064 38.0071 1.73386 37.824 1.73799C37.5555 1.57549 37.3105 1.37744 37.094 1.14988C36.5729 0.515111 35.8289 0.1041 35.0142 0.000315805C34.2629 0.10283 33.5787 0.485594 33.0978 1.07148C32.8547 1.33237 32.5738 1.55549 32.265 1.73386C31.9762 1.56819 31.7134 1.36125 31.4852 1.11846C30.9787 0.503368 30.2576 0.1041 29.4673 0.000315805C28.989 -0.00127111 28.5992 0.385301 28.5977 0.864232C28.5961 1.34253 28.983 1.73227 29.4616 1.73386Z" fill="#0754A6"/>
<path d="M9.53276 39.8668H6.06567C5.58706 39.8668 5.19922 40.2549 5.19922 40.7332V45.9332C5.19922 46.4121 5.58706 46.8 6.06567 46.8H9.53276C10.0111 46.8 10.3992 46.4121 10.3992 45.9332V40.7332C10.3992 40.2549 10.0111 39.8668 9.53276 39.8668ZM8.66567 45.0668H6.93245V41.6003H8.66567V45.0668Z" fill="#0754A6"/>
<path d="M16.4664 39.8668H12.9996C12.5207 39.8668 12.1328 40.2549 12.1328 40.7332V45.9332C12.1328 46.4121 12.5207 46.8 12.9996 46.8H16.4664C16.9447 46.8 17.3328 46.4121 17.3328 45.9332V40.7332C17.3328 40.2549 16.9447 39.8668 16.4664 39.8668ZM15.5993 45.0668H13.866V41.6003H15.5993V45.0668Z" fill="#0754A6"/>
<path d="M23.3999 39.8668H19.9332C19.4542 39.8668 19.0664 40.2549 19.0664 40.7332V45.9332C19.0664 46.4121 19.4542 46.8 19.9332 46.8H23.3999C23.8782 46.8 24.2664 46.4121 24.2664 45.9332V40.7332C24.2664 40.2549 23.8782 39.8668 23.3999 39.8668ZM22.5329 45.0668H20.7996V41.6003H22.5329V45.0668Z" fill="#0754A6"/>
</svg>
