<svg width="49" height="39" viewBox="0 0 49 39" fill="none" xmlns="http://www.w3.org/2000/svg">
<path d="M42.2143 2.1129H37.9355V5.27419H34.7742V6.39329C32.7462 2.89532 28.9709 0.532257 24.6454 0.532257H21.1941C16.8679 0.532257 13.0925 2.89611 11.0645 6.39329V5.27419H6.32258V8.43548H4.74194V5.27419H0V17.9194H4.74194V14.7581H6.32258V25.0323C6.32258 26.7718 7.45985 28.2362 9.02469 28.7618C7.85581 29.7774 7.1129 31.2695 7.1129 32.9355C7.1129 35.9861 9.59452 38.4677 12.6452 38.4677C15.6958 38.4677 18.1774 35.9861 18.1774 32.9355C18.1774 31.388 17.5373 29.9892 16.5098 28.9839H27.7482C26.7208 29.9892 26.0806 31.388 26.0806 32.9355C26.0806 35.9861 28.5623 38.4677 31.6129 38.4677C34.6635 38.4677 37.1452 35.9861 37.1452 32.9355C37.1452 31.388 36.505 29.9892 35.4776 28.9839H35.5645C37.1807 28.9839 38.5693 28.0062 39.181 26.6129H49V8.89861L42.2143 2.1129ZM3.16129 16.3387H1.58065V6.85484H3.16129V16.3387ZM6.32258 13.1774H4.74194V10.0161H6.32258V13.1774ZM21.1933 2.1129H24.6446C30.0117 2.1129 34.4051 6.31268 34.741 11.5968H14.2258V13.1774H34.726C34.677 13.7133 34.5837 14.2404 34.451 14.7581H32.4032V16.3387H33.9033C33.6701 16.8651 33.3967 17.3756 33.0726 17.8609L28.8191 24.2419H17.0196L12.7653 17.8609C12.442 17.3756 12.1686 16.8651 11.9347 16.3387H30.8226V14.7581H11.3878C11.255 14.2404 11.1625 13.7133 11.1127 13.1774H12.6452V11.5968H11.0969C11.4328 6.31268 15.8262 2.1129 21.1933 2.1129ZM34.7742 18.1098V24.2419H30.719L34.3885 18.7381C34.5252 18.5326 34.6509 18.3224 34.7742 18.1098ZM11.0645 18.1098C11.1878 18.3216 11.3135 18.5326 11.4502 18.7373L15.1197 24.2419H11.0645V18.1098ZM16.5968 32.9355C16.5968 35.1144 14.8241 36.8871 12.6452 36.8871C10.4662 36.8871 8.69355 35.1144 8.69355 32.9355C8.69355 30.7566 10.4662 28.9839 12.6452 28.9839C14.8241 28.9839 16.5968 30.7566 16.5968 32.9355ZM35.5645 32.9355C35.5645 35.1144 33.7918 36.8871 31.6129 36.8871C29.434 36.8871 27.6613 35.1144 27.6613 32.9355C27.6613 30.7566 29.434 28.9839 31.6129 28.9839C33.7918 28.9839 35.5645 30.7566 35.5645 32.9355ZM37.9355 25.0323C37.9355 26.3395 36.8717 27.4032 35.5645 27.4032H10.2742C8.967 27.4032 7.90323 26.3395 7.90323 25.0323V6.85484H9.48387V24.2419C9.48387 25.1137 10.1928 25.8226 11.0645 25.8226H34.7742C35.6459 25.8226 36.3548 25.1137 36.3548 24.2419V6.85484H37.9355V25.0323ZM47.4194 25.0323H39.5161V5.27419V3.69355H41.5599L47.4194 9.553V25.0323Z" fill="#0754A6"/>
</svg>
