<svg width="30" height="30" viewBox="0 0 30 30" fill="none" xmlns="http://www.w3.org/2000/svg">
<path d="M29.4864 5.36591C29.2133 2.80746 27.1928 0.786438 24.6341 0.513611C18.2176 -0.171204 11.7824 -0.171204 5.36613 0.513611C2.80746 0.786667 0.786667 2.80746 0.513611 5.36591C-0.171204 11.7822 -0.171204 18.2176 0.513611 24.6339C0.786667 27.1925 2.80746 29.2133 5.36591 29.4864C11.7822 30.1712 18.2176 30.1712 24.6341 29.4864C27.1928 29.2133 29.2133 27.1925 29.4864 24.6339C30.1712 18.2176 30.1712 11.7824 29.4864 5.36591Z" fill="url(#paint0_radial_130_290)"/>
<path d="M27.8547 6.45106C27.6125 4.18078 25.8194 2.38749 23.5489 2.1451C17.8553 1.53765 12.1447 1.53765 6.451 2.1451C4.18072 2.38749 2.38743 4.18078 2.14504 6.45106C1.53759 12.1447 1.53759 17.8553 2.14504 23.5488C2.38743 25.8193 4.18072 27.6126 6.451 27.8547C12.1447 28.4624 17.8553 28.4624 23.5487 27.8547C25.8192 27.6126 27.6125 25.8193 27.8547 23.5488C28.4623 17.8553 28.4623 12.1447 27.8547 6.45106Z" fill="url(#paint1_linear_130_290)"/>
<path d="M0.451172 24.012C0.471771 24.2193 0.493057 24.4267 0.515259 24.6341C0.788315 27.1925 2.80911 29.2133 5.36778 29.4864C11.784 30.1712 18.2195 30.1712 24.6357 29.4864C27.1944 29.2133 29.215 27.1925 29.488 24.6341C29.5102 24.4267 29.5315 24.2193 29.5523 24.012H0.451172Z" fill="url(#paint2_linear_130_290)"/>
<path d="M29.487 24.6339C29.855 21.1863 30.0248 17.7331 29.9974 14.2804L23.1401 7.42313C22.2834 6.44512 21.0321 5.83469 19.5617 5.78182C16.538 5.67287 13.5046 5.67836 10.4804 5.78228C7.96866 5.86879 6.21222 7.55703 5.76178 10.0383C5.68236 10.4764 5.63475 10.9202 5.57227 11.3615V18.6358C5.60683 18.8716 5.65764 19.1062 5.67343 19.3433C5.77414 20.8525 6.39441 22.1453 7.38753 23.0198L14.3657 29.9977C17.7902 30.0218 21.215 29.8515 24.6347 29.4864C27.1934 29.2134 29.2139 27.1926 29.487 24.6339Z" fill="url(#paint3_linear_130_290)"/>
<path d="M29.4852 24.6341C29.2124 27.1923 27.1911 29.2136 24.6329 29.4864C21.2136 29.8512 17.7882 30.0217 14.3641 29.9977L7.39648 23.0301C8.20421 23.7371 9.25707 24.1676 10.4788 24.2136C13.5024 24.3272 16.5364 24.3242 19.56 24.2152C22.2946 24.1164 24.2736 22.0924 24.3589 19.3577C24.45 16.4541 24.45 13.5429 24.3589 10.6393C24.32 9.37775 23.8771 8.26767 23.1429 7.42767L29.9958 14.2806C30.0228 17.7328 29.853 21.1864 29.4852 24.6341Z" fill="url(#paint4_linear_130_290)"/>
<path d="M18.5403 11.7515C17.6619 10.795 16.4014 10.1949 15.0005 10.1949C12.3468 10.1949 10.1953 12.3464 10.1953 15C10.1953 16.401 10.7954 17.6615 11.7519 18.5399L22.8694 29.6574C23.4579 29.6061 24.0463 29.5491 24.6343 29.4864C27.193 29.2134 29.2138 27.1926 29.4868 24.6339C29.5496 24.0459 29.6066 23.4574 29.6578 22.869L18.5403 11.7515Z" fill="url(#paint5_linear_130_290)"/>
<path d="M29.9427 18.2316L20.9953 9.28439C20.7865 9.01042 20.4576 8.83258 20.0866 8.83258C19.4554 8.83258 18.9434 9.34436 18.9434 9.97585C18.9434 10.3469 19.1212 10.6758 19.3952 10.8845L29.7827 21.2723C29.8532 20.2591 29.9066 19.2453 29.9427 18.2316Z" fill="url(#paint6_linear_130_290)"/>
<path d="M5.57227 11.3615C5.63475 10.9202 5.68236 10.4764 5.76178 10.0383C6.21199 7.55703 7.96866 5.86879 10.4804 5.78228C13.5046 5.67836 16.538 5.67287 19.5618 5.78182C22.2955 5.88024 24.2753 7.90447 24.3607 10.6391C24.4516 13.543 24.4516 16.4539 24.3607 19.3577C24.2753 22.0924 22.2962 24.1164 19.562 24.215C16.5382 24.3242 13.5042 24.327 10.4806 24.2134C7.74641 24.1107 5.85631 22.0819 5.67343 19.3431C5.65764 19.1062 5.60683 18.8713 5.57227 18.6356C5.57227 16.2108 5.57227 13.786 5.57227 11.3615ZM15.0031 22.5943C16.3869 22.5943 17.7721 22.6358 19.1541 22.5847C21.3209 22.5044 22.6537 21.2112 22.7043 19.0464C22.767 16.3491 22.767 13.648 22.7043 10.9504C22.6537 8.78612 21.32 7.46273 19.1541 7.41672C16.405 7.35859 13.6529 7.35904 10.9038 7.41672C8.75441 7.46181 7.41774 8.75843 7.35938 10.8989C7.28522 13.6304 7.28522 16.3667 7.35938 19.0982C7.41774 21.2384 8.75441 22.5051 10.9041 22.5847C12.2687 22.6355 13.6367 22.5943 15.0031 22.5943Z" fill="url(#paint7_linear_130_290)"/>
<path d="M5.57227 11.3615C5.63475 10.9202 5.68236 10.4764 5.76178 10.0383C6.21199 7.55703 7.96866 5.86879 10.4804 5.78228C13.5046 5.67836 16.538 5.67287 19.5618 5.78182C22.2955 5.88024 24.2753 7.90447 24.3607 10.6391C24.4516 13.543 24.4516 16.4539 24.3607 19.3577C24.2753 22.0924 22.2962 24.1164 19.562 24.215C16.5382 24.3242 13.5042 24.327 10.4806 24.2134C7.74641 24.1107 5.85631 22.0819 5.67343 19.3431C5.65764 19.1062 5.60683 18.8713 5.57227 18.6356C5.57227 16.2108 5.57227 13.786 5.57227 11.3615ZM15.0031 22.5943C16.3869 22.5943 17.7721 22.6358 19.1541 22.5847C21.3209 22.5044 22.6537 21.2112 22.7043 19.0464C22.767 16.3491 22.767 13.648 22.7043 10.9504C22.6537 8.78612 21.32 7.46273 19.1541 7.41672C16.405 7.35859 13.6529 7.35904 10.9038 7.41672C8.75441 7.46181 7.41774 8.75843 7.35938 10.8989C7.28522 13.6304 7.28522 16.3667 7.35938 19.0982C7.41774 21.2384 8.75441 22.5051 10.9041 22.5847C12.2687 22.6355 13.6367 22.5943 15.0031 22.5943Z" fill="white"/>
<path d="M15.0005 10.1951C12.3468 10.1951 10.1953 12.3464 10.1953 15C10.1953 17.6539 12.3468 19.8052 15.0005 19.8052C17.6543 19.8052 19.8056 17.6539 19.8056 15C19.8056 12.3464 17.6543 10.1951 15.0005 10.1951ZM15.0005 18.1508C13.2603 18.1508 11.8497 16.7402 11.8497 15C11.8497 13.2598 13.2603 11.8492 15.0005 11.8492C16.7406 11.8492 18.1512 13.2598 18.1512 15C18.1512 16.7402 16.7406 18.1508 15.0005 18.1508Z" fill="white"/>
<path d="M21.2297 9.97588C21.2297 10.6071 20.7179 11.1189 20.0866 11.1189C19.4554 11.1189 18.9434 10.6071 18.9434 9.97588C18.9434 9.34439 19.4554 8.83261 20.0866 8.83261C20.7179 8.83261 21.2297 9.34439 21.2297 9.97588Z" fill="white"/>
<defs>
<radialGradient id="paint0_radial_130_290" cx="0" cy="0" r="1" gradientUnits="userSpaceOnUse" gradientTransform="translate(6.14983 26.2176) scale(33.0847)">
<stop stop-color="#FAE100"/>
<stop offset="0.0544" stop-color="#FADC04"/>
<stop offset="0.1167" stop-color="#FBCE0E"/>
<stop offset="0.1829" stop-color="#FCB720"/>
<stop offset="0.2514" stop-color="#FE9838"/>
<stop offset="0.3054" stop-color="#FF7950"/>
<stop offset="0.4922" stop-color="#FF1C74"/>
<stop offset="1" stop-color="#6C1CD1"/>
</radialGradient>
<linearGradient id="paint1_linear_130_290" x1="11.5062" y1="13.0348" x2="-39.3174" y2="-15.5535" gradientUnits="userSpaceOnUse">
<stop stop-color="#A1B5D8" stop-opacity="0"/>
<stop offset="0.3094" stop-color="#90A2BD" stop-opacity="0.309804"/>
<stop offset="0.7554" stop-color="#7C8B9C" stop-opacity="0.756863"/>
<stop offset="1" stop-color="#748290"/>
</linearGradient>
<linearGradient id="paint2_linear_130_290" x1="15.0017" y1="26.4824" x2="15.0017" y2="31.1586" gradientUnits="userSpaceOnUse">
<stop stop-color="#FAE100" stop-opacity="0"/>
<stop offset="0.3068" stop-color="#FCA800" stop-opacity="0.305882"/>
<stop offset="0.6275" stop-color="#FE7300" stop-opacity="0.627451"/>
<stop offset="0.8685" stop-color="#FF5200" stop-opacity="0.866667"/>
<stop offset="1" stop-color="#FF4500"/>
</linearGradient>
<linearGradient id="paint3_linear_130_290" x1="13.2939" y1="13.2509" x2="5.86938" y2="5.82637" gradientUnits="userSpaceOnUse">
<stop stop-color="#833AB4" stop-opacity="0"/>
<stop offset="1" stop-color="#833AB4"/>
</linearGradient>
<linearGradient id="paint4_linear_130_290" x1="20.5593" y1="27.4387" x2="16.8536" y2="9.969" gradientUnits="userSpaceOnUse">
<stop stop-color="#833AB4" stop-opacity="0"/>
<stop offset="1" stop-color="#833AB4"/>
</linearGradient>
<linearGradient id="paint5_linear_130_290" x1="21.9711" y1="21.9706" x2="7.08685" y2="7.08641" gradientUnits="userSpaceOnUse">
<stop stop-color="#833AB4" stop-opacity="0"/>
<stop offset="1" stop-color="#833AB4"/>
</linearGradient>
<linearGradient id="paint6_linear_130_290" x1="23.0755" y1="12.9647" x2="18.1536" y2="8.04275" gradientUnits="userSpaceOnUse">
<stop stop-color="#833AB4" stop-opacity="0"/>
<stop offset="1" stop-color="#833AB4"/>
</linearGradient>
<linearGradient id="paint7_linear_130_290" x1="20.9571" y1="9.08497" x2="8.82145" y2="21.2206" gradientUnits="userSpaceOnUse">
<stop stop-color="#833AB4"/>
<stop offset="0.0922" stop-color="#9C3495"/>
<stop offset="0.2927" stop-color="#DC2546"/>
<stop offset="0.392" stop-color="#FD1D1D"/>
<stop offset="0.5589" stop-color="#FC6831"/>
<stop offset="0.6887" stop-color="#FC9B40"/>
<stop offset="0.7521" stop-color="#FCAF45"/>
<stop offset="0.7806" stop-color="#FDB750"/>
<stop offset="0.8656" stop-color="#FECB6A"/>
<stop offset="0.9415" stop-color="#FFD87A"/>
<stop offset="1" stop-color="#FFDC80"/>
</linearGradient>
</defs>
</svg>
