<svg width="30" height="22" viewBox="0 0 30 22" fill="none" xmlns="http://www.w3.org/2000/svg">
<path d="M27.3633 0.723145H2.63672C1.18283 0.723145 0 1.90598 0 3.35986V18.6401C0 20.0939 1.18283 21.2768 2.63672 21.2768H27.3633C28.8172 21.2768 30 20.0939 30 18.6401V3.35986C30 1.90598 28.8172 0.723145 27.3633 0.723145ZM27.0192 2.48096L26.6672 2.77398L16.0461 11.6182C15.4399 12.1229 14.56 12.1229 13.9539 11.6182L3.33275 2.77398L2.98084 2.48096H27.0192ZM1.75781 3.74998L10.4116 10.956L1.75781 16.7154V3.74998ZM27.3633 19.519H2.63672C2.21203 19.519 1.85684 19.2162 1.77545 18.8152L11.8211 12.1296L12.8291 12.969C13.458 13.4927 14.2291 13.7546 15.0001 13.7546C15.771 13.7546 16.542 13.4927 17.171 12.969L18.1791 12.1296L28.2246 18.8151C28.1432 19.2162 27.788 19.519 27.3633 19.519ZM28.2422 16.7154L19.5884 10.9561L28.2422 3.74998V16.7154Z" fill="white"/>
</svg>
